<svg xmlns:dc="http://purl.org/dc/elements/1.1/" xmlns:cc="http://creativecommons.org/ns#" xmlns:rdf="http://www.w3.org/1999/02/22-rdf-syntax-ns#" xmlns:svg="http://www.w3.org/2000/svg" xmlns="http://www.w3.org/2000/svg" xmlns:sodipodi="http://sodipodi.sourceforge.net/DTD/sodipodi-0.dtd" xmlns:inkscape="http://www.inkscape.org/namespaces/inkscape" version="1.1" x="0px" y="0px" viewBox="0 0 674.58649 948.5299625" enable-background="new 0 0 2000 2000" xml:space="preserve"><path style="" d="M 210.985,0 C 129.123,0 62.514,66.606 62.514,148.467 l 0,72.956 0,28.631 0,65.139 c 0,17.253 -13.972,31.257 -31.257,31.257 C 13.972,346.45 0,360.421 0,377.707 c 0,0.571 0.02,1.141 0.05,1.706 -0.03,0.563 -0.05,1.13 -0.05,1.7 0,17.285 13.972,31.26 31.257,31.26 17.285,0 31.257,14.003 31.257,31.258 l 0,93.766 0,72.955 c 0,81.862 66.609,148.472 148.471,148.472 17.285,0 31.257,-13.971 31.257,-31.256 0,-17.285 -13.972,-31.258 -31.257,-31.258 -47.386,0 -85.957,-38.541 -85.957,-85.958 l 0,-101.583 0,-65.138 c 0,-24.828 -9.723,-47.418 -25.535,-64.214 15.815,-16.795 25.535,-39.39 25.535,-64.224 l 0,-65.139 0,-28.631 0,-72.956 c 0,-47.416 38.571,-85.954 85.957,-85.954 17.285,0 31.257,-13.972 31.257,-31.257 C 242.242,13.971 228.27,0 210.985,0 Z m 252.61596,0 c -17.285,0 -31.254,13.971 -31.254,31.256 0,17.285 13.969,31.257 31.254,31.257 47.449,0 85.96,38.538 85.96,85.954 l 0,101.587 0,65.139 c 0,24.831 9.7224,47.423 25.5385,64.218 -15.8161,16.794 -25.5385,39.388 -25.5385,64.22 l 0,93.766 0,72.955 c 0,47.417 -38.511,85.958 -85.96,85.958 -17.285,0 -31.254,13.973 -31.254,31.258 0,17.285 13.969,31.256 31.254,31.256 81.895,0 148.4745,-66.61 148.4745,-148.472 l 0,-101.583 0,-65.138 c 0,-17.255 14.034,-31.258 31.257,-31.258 17.285,0 31.254,-13.975 31.254,-31.26 0,-0.57 -0.02,-1.137 -0.05,-1.7 0.03,-0.565 0.05,-1.135 0.05,-1.706 0,-17.286 -13.969,-31.257 -31.254,-31.257 -17.223,0 -31.257,-14.004 -31.257,-31.257 l 0,-93.77 0,-72.956 C 612.07546,66.606 545.46496,0 463.60096,0 Z" fill="#000000"/><text x="0" y="773.82397" fill="#000000" font-size="5px" font-weight="bold" font-family="'Helvetica Neue', Helvetica, Arial-Unicode, Arial, Sans-serif">Created by logan</text><text x="0" y="778.82397" fill="#000000" font-size="5px" font-weight="bold" font-family="'Helvetica Neue', Helvetica, Arial-Unicode, Arial, Sans-serif">from the Noun Project</text></svg>