<svg xmlns="http://www.w3.org/2000/svg" data-name="Layer 1" viewBox="0 0 100 125" x="0px" y="0px"><title>02</title><path d="M96,17H4V83H96Zm-4,4V69.59L72.37,49.44,58.94,61,36.86,43.72,8,72V21ZM8,79V77.58L37.15,49,59.06,66.16,72.13,54.93,92,75.32V79Z"/><path d="M78.33,45a10,10,0,1,0-10-10A10,10,0,0,0,78.33,45Zm0-16a6,6,0,1,1-6,6A6,6,0,0,1,78.33,29Z"/><text x="0" y="115" fill="#000000" font-size="5px" font-weight="bold" font-family="'Helvetica Neue', Helvetica, Arial-Unicode, Arial, Sans-serif">Created by Karan</text><text x="0" y="120" fill="#000000" font-size="5px" font-weight="bold" font-family="'Helvetica Neue', Helvetica, Arial-Unicode, Arial, Sans-serif">from the Noun Project</text></svg>