<svg xmlns="http://www.w3.org/2000/svg" xmlns:xlink="http://www.w3.org/1999/xlink" version="1.1" x="0px" y="0px" viewBox="0 0 100 125" enable-background="new 0 0 100 100" xml:space="preserve"><path d="M74,90V10c0-3.3-2.7-6-6-6H32c-3.3,0-6,2.7-6,6v80c0,3.3,2.7,6,6,6h36C71.3,96,74,93.3,74,90z M46,8h8v2h-8V8z M50,92  c-2.2,0-4-1.8-4-4c0-2.2,1.8-4,4-4s4,1.8,4,4C54,90.2,52.2,92,50,92z M70,80H30V14h40V80z"/><text x="0" y="115" fill="#000000" font-size="5px" font-weight="bold" font-family="'Helvetica Neue', Helvetica, Arial-Unicode, Arial, Sans-serif">Created by Indygo</text><text x="0" y="120" fill="#000000" font-size="5px" font-weight="bold" font-family="'Helvetica Neue', Helvetica, Arial-Unicode, Arial, Sans-serif">from the Noun Project</text></svg>